<?xml version="1.0" encoding="UTF-8" standalone="no"?>
<!-- Created with Inkscape (http://www.inkscape.org/) -->

<svg
   width="480"
   height="544"
   viewBox="0 0 127 143.93333"
   version="1.1"
   id="svg1"
   xml:space="preserve"
   inkscape:version="1.4 (e7c3feb100, 2024-10-09)"
   sodipodi:docname="logo.svg"
   xmlns:inkscape="http://www.inkscape.org/namespaces/inkscape"
   xmlns:sodipodi="http://sodipodi.sourceforge.net/DTD/sodipodi-0.dtd"
   xmlns="http://www.w3.org/2000/svg"
   xmlns:svg="http://www.w3.org/2000/svg"><sodipodi:namedview
     id="namedview1"
     pagecolor="#ffffff"
     bordercolor="#ffffff"
     borderopacity="0.25"
     inkscape:showpageshadow="2"
     inkscape:pageopacity="0.0"
     inkscape:pagecheckerboard="0"
     inkscape:deskcolor="#ffffff"
     inkscape:document-units="mm"
     inkscape:zoom="1.385842"
     inkscape:cx="243.17346"
     inkscape:cy="279.25261"
     inkscape:window-width="1290"
     inkscape:window-height="761"
     inkscape:window-x="0"
     inkscape:window-y="0"
     inkscape:window-maximized="1"
     inkscape:current-layer="layer1" /><defs
     id="defs1" /><g
     inkscape:groupmode="layer"
     id="layer2"
     inkscape:label="Layer 2"><g
       inkscape:label="Layer 1"
       inkscape:groupmode="layer"
       id="layer1"
       transform="translate(-9.18,-6.4800001)"><path
         style="fill:#ffffff"
         d="m 68.28977,120.48624 -2.62335,-0.35716 -2.40373,-0.68865 c -1.32205,-0.37876 -3.513289,-1.17484 -4.86941,-1.76908 l -2.465676,-1.08042 -2.259623,-1.41863 c -3.105226,-1.94952 -5.296383,-3.73889 -7.511326,-6.134 l -1.87824,-2.03101 -1.587332,-2.36515 c -1.784448,-2.65885 -3.010819,-4.98992 -4.216247,-8.0142 l -0.819517,-2.05607 -0.663678,-2.77812 -0.663677,-2.77813 -0.134489,-5.21648 -0.134489,-5.21649 0.444574,-2.65874 c 0.244516,-1.46231 0.74191,-3.6988 1.10532,-4.96998 l 0.660745,-2.31122 1.535048,-3.175 1.535047,-3.175 1.689826,-2.36956 1.689827,-2.36956 2.444034,-2.42468 2.444034,-2.42468 2.384907,-1.68805 2.384907,-1.68806 2.579392,-1.33281 2.579392,-1.33281 2.248961,-0.74317 c 1.23692,-0.40875 3.26099,-0.97524 4.49791,-1.25888 l 2.24896,-0.51571 3.96875,-0.15459 3.96875,-0.1546 2.91042,0.45571 2.91041,0.45572 2.51355,0.79852 2.51354,0.79853 2.38125,1.18504 c 3.08528,1.53541 3.86415,2.00278 6.01927,3.61197 l 1.78594,1.33353 v 0.28651 c 0,0.15757 -0.76086,1.04059 -1.69078,1.96225 L 94.12218,56.39908 92.39207,54.972 c -0.95156,-0.78489 -2.6474,-1.95191 -3.76853,-2.59337 l -2.03842,-1.16629 -2.27975,-0.85385 c -1.25386,-0.46961 -3.23225,-1.05017 -4.39642,-1.29013 l -2.11666,-0.43629 -2.64584,-0.14833 -2.64583,-0.14833 -2.98399,0.44044 -2.984,0.44043 -2.42349,0.79196 c -4.495847,1.46918 -8.187606,3.65737 -11.776745,6.98037 l -1.862261,1.72416 -1.462793,1.92226 c -1.831478,2.40675 -3.17829,4.86154 -4.011813,7.3122 l -0.646016,1.89936 -0.299025,2.04505 -0.299025,2.04504 0.102392,9.52385 0.102392,9.52384 0.727554,2.37177 0.727555,2.37177 1.074037,2.16749 1.074038,2.1675 1.666918,2.22104 1.666918,2.22104 1.907776,1.7997 1.907776,1.7997 1.752152,1.12963 c 3.514211,2.26564 6.64912,3.51982 11.28486,4.51472 l 2.10896,0.45261 3.30729,0.0116 3.30729,0.0116 2.26776,-0.4411 c 4.40735,-0.85728 8.38923,-2.55754 11.68008,-4.98739 l 1.77701,-1.31208 1.83358,-1.96338 c 2.25589,-2.41558 3.44422,-4.18256 4.94854,-7.35822 l 1.1613,-2.45153 0.78367,-3.15699 c 0.43101,-1.73634 0.85771,-3.72253 0.94822,-4.41376 l 0.16456,-1.25677 h 3.77614 c 4.44374,0 4.15331,-0.15996 3.69339,2.03413 -2.00681,9.57364 -7.93334,18.23526 -16.29276,23.81182 l -2.57309,1.71651 -2.66278,1.17189 c -1.46453,0.64453 -3.69992,1.47364 -4.96753,1.84245 l -2.30476,0.67057 -2.64583,0.37876 -2.64583,0.37876 -2.24896,-0.0224 c -1.23693,-0.0123 -3.42947,-0.18313 -4.87231,-0.37956 z M 36.120415,118.38437 V 116.4 h 1.984375 1.984375 v 1.98437 1.98438 H 38.10479 36.120415 Z m 70.036875,1.81848 -0.18688,-0.18688 v -1.81912 -1.81911 l 2.05052,0.0773 2.05052,0.0773 v 1.85208 1.85208 l -1.86364,0.0766 -1.86364,0.0766 z M 68.41775,111.8787 C 60.65681,110.35632 53.874675,105.06595 50.399614,97.82373 l -1.087541,-2.2665 -0.552524,-1.94789 -0.552523,-1.94788 -0.109509,-8.51511 -0.109508,-8.51511 0.435908,-2.3263 0.435908,-2.32629 0.789047,-2.04607 0.789048,-2.04607 1.337923,-2.04949 1.337923,-2.04949 1.623637,-1.69585 c 2.795469,-2.91981 6.078137,-4.95337 9.967337,-6.17462 l 1.97505,-0.62019 h 6.87917 6.87916 l 1.57549,0.48615 c 2.85733,0.88169 6.04842,2.65137 8.80941,4.88543 l 1.12448,0.90988 v 0.3131 c 0,0.32098 -1.6087,2.0044 -1.91543,2.0044 -0.0937,0 -0.84381,-0.58924 -1.66681,-1.30943 l -1.49637,-1.30944 -2.32235,-1.19944 -2.32235,-1.19945 -1.68678,-0.39762 -1.68679,-0.39763 -5.04463,-0.004 -5.04464,-0.004 -1.49678,0.27669 c -0.82323,0.15219 -2.3247,0.6181 -3.33659,1.03537 l -1.8398,0.75868 -1.652789,1.12238 c -0.909033,0.61732 -2.379899,1.8495 -3.268592,2.73819 l -1.615804,1.61581 -1.300416,2.08643 -1.300416,2.08643 -0.802541,2.14366 -0.802542,2.14365 -0.08715,9.326 -0.08715,9.32601 0.390565,1.52191 c 0.214811,0.83705 0.645129,2.20143 0.956262,3.03196 l 0.565697,1.51004 1.338147,2.04984 1.338146,2.04983 1.623637,1.69204 1.623636,1.69203 2.11667,1.40702 2.11667,1.40703 1.98437,0.78403 c 1.09141,0.43121 2.63922,0.9289 3.43958,1.10597 l 1.45521,0.32194 6.68088,-0.092 c 3.67449,-0.0506 6.68082,-0.0654 6.68073,-0.0329 -8e-5,0.0325 -0.62523,0.48197 -1.38921,0.9988 l -1.38907,0.93968 -1.68151,0.52256 -1.68152,0.52255 -3.87473,-0.029 -3.87473,-0.029 z m 1.14804,-5.80552 c -1.5364,-0.30462 -4.22563,-1.47898 -5.92871,-2.58901 l -1.45521,-0.94848 -1.885102,-1.89243 -1.885104,-1.89244 -1.33315,-2.66301 -1.333149,-2.66301 -0.433803,-1.94986 -0.433803,-1.94986 0.08662,-8.45681 0.08662,-8.45681 0.581874,-1.71979 0.581873,-1.7198 0.999192,-1.68599 0.999192,-1.68599 1.521011,-1.66149 1.521009,-1.66149 1.4947,-0.99212 1.4947,-0.99213 1.87908,-0.67863 1.87909,-0.67863 5.42395,-0.009 5.42396,-0.009 1.85208,0.58421 1.85209,0.58422 1.5875,0.95093 c 0.87312,0.523 2.06188,1.42085 2.64168,1.99521 l 1.05418,1.04428 -0.94686,0.94686 -0.94686,0.94687 -1.73901,-1.31626 -1.73901,-1.31625 -1.54331,-0.61814 -1.54331,-0.61814 -4.85858,-0.0872 -4.85857,-0.0872 -1.75601,0.53485 -1.75601,0.53485 -1.27262,0.80897 c -0.69995,0.44494 -1.87062,1.36833 -2.60151,2.05199 l -1.32888,1.24301 -1.017672,1.72932 -1.017671,1.72932 -0.481865,1.5875 -0.481865,1.5875 v 8.06979 8.0698 l 0.486356,1.5762 c 0.650923,2.10953 1.459506,3.6567 2.941217,5.6278 l 1.23278,1.63997 1.77087,1.33355 1.77086,1.33356 2.11667,0.84553 2.11667,0.84553 4.49791,0.10274 4.49792,0.10274 1.82211,-0.42454 1.82211,-0.42454 1.79475,-0.94311 1.79475,-0.94312 1.61564,-1.46207 1.61564,-1.46207 1.15203,-1.62513 c 1.40389,-1.98043 2.31972,-3.77774 2.95148,-5.79232 l 0.47708,-1.52135 h 1.56863 1.56863 l -0.1851,0.99219 c -0.10181,0.5457 -0.53853,1.90999 -0.97049,3.03174 l -0.78539,2.03956 -1.26968,1.92919 c -1.64998,2.50704 -3.14144,4.16451 -5.11141,5.68037 l -1.59359,1.22624 -1.75235,0.85526 -1.75234,0.85527 -1.90432,0.42634 -1.90431,0.42634 -4.84256,-0.029 -4.84256,-0.029 z m -0.1491,-6.18151 c -1.31768,-0.47069 -3.15651,-1.57131 -3.78443,-2.26516 l -0.51773,-0.57207 0.27393,-0.43426 c 0.15065,-0.23884 0.57634,-0.66005 0.94598,-0.93602 l 0.67206,-0.50176 1.04608,0.66036 c 1.34641,0.84996 3.01649,1.41031 4.84492,1.6256 l 1.4552,0.17135 2.29343,-0.24207 2.29343,-0.24206 1.74777,-0.81788 1.74778,-0.81788 1.41845,-1.41846 1.41846,-1.41846 0.89034,-1.89454 0.89034,-1.89455 1.74184,-0.005 c 0.95802,-0.003 1.81505,0.068 1.90452,0.15744 l 0.16268,0.16268 -0.65788,1.75555 -0.65788,1.75555 -0.88706,1.32292 c -1.12378,1.67595 -2.70941,3.30425 -4.24947,4.36385 l -1.20216,0.8271 -1.49215,0.51338 -1.49215,0.51337 -4.91952,-0.0116 -4.91951,-0.0116 z M 86.24439,74.456 C 85.8886,73.65148 85.5975,72.90287 85.5975,72.7924 c 0,-0.32003 2.49984,-2.69448 2.83678,-2.69448 h 0.30506 l 0.80982,1.65364 0.80982,1.65365 0.16876,1.25677 0.16877,1.25677 H 88.7939 86.89129 Z m 8.2339,1.13202 c -0.0541,-0.1819 -0.2977,-1.2237 -0.54126,-2.3151 l -0.44283,-1.98438 -1.07601,-2.20342 -1.07602,-2.20341 1.68408,-1.69919 c 2.04937,-2.06775 1.86417,-2.06787 3.02171,0.002 1.60685,2.87332 2.65748,6.04085 3.18741,9.60974 l 0.16697,1.12448 H 96.98953 94.57672 Z M 81.78647,69.87449 c -0.0759,-0.12289 -0.94617,-0.6289 -1.93384,-1.12448 l -1.79576,-0.90105 h -3.59621 -3.59621 l -2.05949,1.04534 -2.0595,1.04535 -0.76044,-0.85108 c -0.41824,-0.4681 -0.76044,-0.99994 -0.76044,-1.18188 v -0.3308 l 1.27403,-0.83405 1.27403,-0.83405 1.51858,-0.44147 1.51859,-0.44146 4.1596,0.0891 4.15961,0.0891 1.7154,0.84516 1.71541,0.84515 0.77458,0.80849 0.77459,0.8085 -0.76046,0.79375 c -0.7601,0.79336 -1.30195,0.9912 -1.56207,0.57032 z m 18.86855,-2.58383 -0.88145,-2.55719 -1.13491,-1.84077 c -0.6242,-1.01242 -1.13491,-1.9815 -1.13491,-2.15352 v -0.31275 l 1.79257,-1.77884 c 2.38169,-2.36344 2.50495,-2.30247 5.72983,2.83417 l 1.39978,2.22959 1.07446,2.46568 c 0.59096,1.35612 1.11354,2.7038 1.1613,2.99484 l 0.0868,0.52917 -3.60603,0.0734 -3.60604,0.0734 z M 35.98188,47.52663 C 35.88785,46.89961 35.850791,46.03641 35.89952,45.6084 l 0.0886,-0.77819 2.05052,-0.0773 2.050521,-0.0773 v 1.9955 1.99551 h -1.968163 -1.968163 z m 70.17541,0.97414 -0.18688,-0.18688 v -1.81912 -1.81911 l 2.05052,0.0773 2.05052,0.0773 v 1.85208 1.85208 l -1.86364,0.0766 -1.86364,0.0766 z"
         id="path1" />
         </g>
         </g>
         </svg>
